<mxfile host="app.diagrams.net" agent="Mozilla/5.0 (Windows NT 10.0; Win64; x64) AppleWebKit/537.36 (KHTML, like Gecko) Chrome/129.0.0.0 Safari/537.36 Edg/129.0.0.0" version="24.7.17">
  <diagram name="Page-1" id="PlHeshnkqyI9LTCzySUf">
    <mxGraphModel dx="2276" dy="781" grid="1" gridSize="10" guides="1" tooltips="1" connect="1" arrows="1" fold="1" page="1" pageScale="1" pageWidth="850" pageHeight="1100" math="0" shadow="0">
      <root>
        <mxCell id="0" />
        <mxCell id="1" parent="0" />
        <mxCell id="cCdaDrkrxBN9BAhdTQBS-9" value="" style="rounded=0;whiteSpace=wrap;html=1;" parent="1" vertex="1">
          <mxGeometry x="-600" y="160" width="1430" height="760" as="geometry" />
        </mxCell>
        <mxCell id="cCdaDrkrxBN9BAhdTQBS-2" value="Flight_leg(leg_no,Schedual_dep_time,Schedual_arr_time,Airport_code,Number)" style="text;html=1;align=center;verticalAlign=middle;resizable=0;points=[];autosize=1;strokeColor=none;fillColor=none;fontSize=25;" parent="1" vertex="1">
          <mxGeometry x="-404" y="560" width="910" height="40" as="geometry" />
        </mxCell>
        <mxCell id="cCdaDrkrxBN9BAhdTQBS-3" value="Flight(lNumber,Airline,weekdays)" style="text;html=1;align=center;verticalAlign=middle;resizable=0;points=[];autosize=1;strokeColor=none;fillColor=none;fontSize=25;" parent="1" vertex="1">
          <mxGeometry x="-405" y="330" width="390" height="40" as="geometry" />
        </mxCell>
        <mxCell id="cCdaDrkrxBN9BAhdTQBS-4" value="FARE(AMOUNT,Restrictions,code,Number)" style="text;html=1;align=center;verticalAlign=middle;resizable=0;points=[];autosize=1;strokeColor=none;fillColor=none;fontSize=25;" parent="1" vertex="1">
          <mxGeometry x="-404" y="610" width="510" height="40" as="geometry" />
        </mxCell>
        <mxCell id="cCdaDrkrxBN9BAhdTQBS-5" value="Airplane_type(Type_name,Company,Max_seats))" style="text;html=1;align=center;verticalAlign=middle;resizable=0;points=[];autosize=1;strokeColor=none;fillColor=none;fontSize=25;" parent="1" vertex="1">
          <mxGeometry x="-400" y="380" width="570" height="40" as="geometry" />
        </mxCell>
        <mxCell id="cCdaDrkrxBN9BAhdTQBS-6" value="Airplane(AirpaneID,Total_no_of_seats,Type_name)" style="text;html=1;align=center;verticalAlign=middle;resizable=0;points=[];autosize=1;strokeColor=none;fillColor=none;fontSize=25;" parent="1" vertex="1">
          <mxGeometry x="-408" y="440" width="590" height="40" as="geometry" />
        </mxCell>
        <mxCell id="cCdaDrkrxBN9BAhdTQBS-7" value="leg_instance(No_of_avail_saeats,Date,AirpalneID,Leg_no,Arr_time,Dep+time,Airport_code)" style="text;html=1;align=center;verticalAlign=middle;resizable=0;points=[];autosize=1;strokeColor=none;fillColor=none;fontSize=25;" parent="1" vertex="1">
          <mxGeometry x="-405" y="500" width="1040" height="40" as="geometry" />
        </mxCell>
        <mxCell id="cCdaDrkrxBN9BAhdTQBS-10" value="Seat(seat_no)" style="text;html=1;align=center;verticalAlign=middle;resizable=0;points=[];autosize=1;strokeColor=none;fillColor=none;fontSize=25;" parent="1" vertex="1">
          <mxGeometry x="-400" y="670" width="180" height="40" as="geometry" />
        </mxCell>
        <mxCell id="cCdaDrkrxBN9BAhdTQBS-11" value="Airport(Airport_code,city,state,Name)" style="text;html=1;align=center;verticalAlign=middle;resizable=0;points=[];autosize=1;strokeColor=none;fillColor=none;fontSize=25;" parent="1" vertex="1">
          <mxGeometry x="-399" y="270" width="430" height="40" as="geometry" />
        </mxCell>
        <mxCell id="cCdaDrkrxBN9BAhdTQBS-12" value="" style="endArrow=none;html=1;rounded=0;" parent="1" edge="1">
          <mxGeometry width="50" height="50" relative="1" as="geometry">
            <mxPoint x="-175" y="310" as="sourcePoint" />
            <mxPoint x="-293" y="310.00209085542053" as="targetPoint" />
          </mxGeometry>
        </mxCell>
        <mxCell id="cCdaDrkrxBN9BAhdTQBS-13" value="" style="endArrow=none;html=1;rounded=0;" parent="1" edge="1">
          <mxGeometry width="50" height="50" relative="1" as="geometry">
            <mxPoint x="-233" y="367" as="sourcePoint" />
            <mxPoint x="-321" y="367.00209085542053" as="targetPoint" />
          </mxGeometry>
        </mxCell>
        <mxCell id="cCdaDrkrxBN9BAhdTQBS-14" value="" style="endArrow=none;html=1;rounded=0;" parent="1" edge="1">
          <mxGeometry width="50" height="50" relative="1" as="geometry">
            <mxPoint x="-119" y="420" as="sourcePoint" />
            <mxPoint x="-207" y="420.00209085542053" as="targetPoint" />
          </mxGeometry>
        </mxCell>
        <mxCell id="cCdaDrkrxBN9BAhdTQBS-15" value="" style="endArrow=none;html=1;rounded=0;" parent="1" edge="1">
          <mxGeometry width="50" height="50" relative="1" as="geometry">
            <mxPoint x="-197" y="476" as="sourcePoint" />
            <mxPoint x="-285" y="476.00209085542053" as="targetPoint" />
          </mxGeometry>
        </mxCell>
        <mxCell id="cCdaDrkrxBN9BAhdTQBS-16" value="" style="endArrow=none;html=1;rounded=0;" parent="1" edge="1">
          <mxGeometry width="50" height="50" relative="1" as="geometry">
            <mxPoint x="-246" y="546" as="sourcePoint" />
            <mxPoint x="45" y="545.0020908554205" as="targetPoint" />
          </mxGeometry>
        </mxCell>
        <mxCell id="cCdaDrkrxBN9BAhdTQBS-17" value="" style="endArrow=none;html=1;rounded=0;" parent="1" edge="1">
          <mxGeometry width="50" height="50" relative="1" as="geometry">
            <mxPoint x="-303" y="651" as="sourcePoint" />
            <mxPoint x="-12" y="650.0020908554205" as="targetPoint" />
          </mxGeometry>
        </mxCell>
        <mxCell id="cCdaDrkrxBN9BAhdTQBS-18" value="" style="endArrow=none;html=1;rounded=0;" parent="1" edge="1">
          <mxGeometry width="50" height="50" relative="1" as="geometry">
            <mxPoint x="-192" y="600" as="sourcePoint" />
            <mxPoint x="-280" y="600.0020908554205" as="targetPoint" />
          </mxGeometry>
        </mxCell>
        <mxCell id="cCdaDrkrxBN9BAhdTQBS-19" value="" style="endArrow=none;html=1;rounded=0;" parent="1" edge="1">
          <mxGeometry width="50" height="50" relative="1" as="geometry">
            <mxPoint x="-246" y="710" as="sourcePoint" />
            <mxPoint x="-334" y="710.0020908554205" as="targetPoint" />
          </mxGeometry>
        </mxCell>
        <mxCell id="2ty1knG1eM7zC8Bu9mtG-1" value="Can_land(Airport_code,Type_name)" style="text;html=1;align=center;verticalAlign=middle;resizable=0;points=[];autosize=1;strokeColor=none;fillColor=none;fontSize=25;" vertex="1" parent="1">
          <mxGeometry x="-400" y="720" width="430" height="40" as="geometry" />
        </mxCell>
        <mxCell id="2ty1knG1eM7zC8Bu9mtG-2" value="" style="endArrow=none;dashed=1;html=1;rounded=0;" edge="1" parent="1">
          <mxGeometry width="50" height="50" relative="1" as="geometry">
            <mxPoint x="-250" y="760" as="sourcePoint" />
            <mxPoint x="-140" y="760" as="targetPoint" />
          </mxGeometry>
        </mxCell>
        <mxCell id="2ty1knG1eM7zC8Bu9mtG-3" value="" style="endArrow=none;dashed=1;html=1;rounded=0;" edge="1" parent="1">
          <mxGeometry width="50" height="50" relative="1" as="geometry">
            <mxPoint x="-118" y="762" as="sourcePoint" />
            <mxPoint x="-8" y="762" as="targetPoint" />
          </mxGeometry>
        </mxCell>
        <mxCell id="2ty1knG1eM7zC8Bu9mtG-4" value="" style="endArrow=none;html=1;rounded=0;" edge="1" parent="1">
          <mxGeometry width="50" height="50" relative="1" as="geometry">
            <mxPoint x="-282" y="768" as="sourcePoint" />
            <mxPoint x="9" y="767.0020908554205" as="targetPoint" />
          </mxGeometry>
        </mxCell>
        <mxCell id="2ty1knG1eM7zC8Bu9mtG-8" value="" style="endArrow=none;dashed=1;html=1;rounded=0;" edge="1" parent="1">
          <mxGeometry width="50" height="50" relative="1" as="geometry">
            <mxPoint x="250" y="600" as="sourcePoint" />
            <mxPoint x="360" y="600" as="targetPoint" />
          </mxGeometry>
        </mxCell>
        <mxCell id="2ty1knG1eM7zC8Bu9mtG-10" value="" style="endArrow=classic;html=1;rounded=0;" edge="1" parent="1" target="cCdaDrkrxBN9BAhdTQBS-11">
          <mxGeometry width="50" height="50" relative="1" as="geometry">
            <mxPoint x="310" y="600" as="sourcePoint" />
            <mxPoint x="730" y="470" as="targetPoint" />
            <Array as="points">
              <mxPoint x="310" y="610" />
              <mxPoint x="430" y="620" />
              <mxPoint x="720" y="620" />
              <mxPoint x="720" y="330" />
              <mxPoint x="-180" y="320" />
            </Array>
          </mxGeometry>
        </mxCell>
        <mxCell id="2ty1knG1eM7zC8Bu9mtG-11" value="&lt;font color=&quot;#5517ff&quot;&gt;Departure,Arrival&lt;/font&gt;" style="text;html=1;align=center;verticalAlign=middle;whiteSpace=wrap;rounded=0;" vertex="1" parent="1">
          <mxGeometry x="330" y="614" width="60" height="30" as="geometry" />
        </mxCell>
        <mxCell id="2ty1knG1eM7zC8Bu9mtG-14" value="" style="endArrow=classic;html=1;rounded=0;" edge="1" parent="1" target="cCdaDrkrxBN9BAhdTQBS-11">
          <mxGeometry width="50" height="50" relative="1" as="geometry">
            <mxPoint x="-210" y="780" as="sourcePoint" />
            <mxPoint x="-270" y="310" as="targetPoint" />
            <Array as="points">
              <mxPoint x="-450" y="780" />
              <mxPoint x="-440" y="330" />
            </Array>
          </mxGeometry>
        </mxCell>
        <mxCell id="2ty1knG1eM7zC8Bu9mtG-15" value="&lt;font color=&quot;#5517ff&quot;&gt;Canland&lt;/font&gt;" style="text;html=1;align=center;verticalAlign=middle;whiteSpace=wrap;rounded=0;" vertex="1" parent="1">
          <mxGeometry x="-450" y="750" width="60" height="30" as="geometry" />
        </mxCell>
        <mxCell id="2ty1knG1eM7zC8Bu9mtG-16" value="" style="endArrow=classic;html=1;rounded=0;" edge="1" parent="1">
          <mxGeometry width="50" height="50" relative="1" as="geometry">
            <mxPoint x="-60" y="800" as="sourcePoint" />
            <mxPoint x="-200" y="420" as="targetPoint" />
            <Array as="points">
              <mxPoint x="-470" y="800" />
              <mxPoint x="-470" y="410" />
            </Array>
          </mxGeometry>
        </mxCell>
        <mxCell id="2ty1knG1eM7zC8Bu9mtG-20" value="&lt;font color=&quot;#5517ff&quot;&gt;Canland&lt;/font&gt;" style="text;html=1;align=center;verticalAlign=middle;whiteSpace=wrap;rounded=0;" vertex="1" parent="1">
          <mxGeometry x="-180" y="770" width="60" height="30" as="geometry" />
        </mxCell>
        <mxCell id="2ty1knG1eM7zC8Bu9mtG-21" value="" style="endArrow=none;dashed=1;html=1;rounded=0;" edge="1" parent="1">
          <mxGeometry width="50" height="50" relative="1" as="geometry">
            <mxPoint x="39" y="482" as="sourcePoint" />
            <mxPoint x="149" y="482" as="targetPoint" />
          </mxGeometry>
        </mxCell>
        <mxCell id="2ty1knG1eM7zC8Bu9mtG-22" value="" style="endArrow=classic;html=1;rounded=0;entryX=0.456;entryY=0.925;entryDx=0;entryDy=0;entryPerimeter=0;" edge="1" parent="1" target="cCdaDrkrxBN9BAhdTQBS-5">
          <mxGeometry width="50" height="50" relative="1" as="geometry">
            <mxPoint x="130" y="490" as="sourcePoint" />
            <mxPoint x="230" y="510" as="targetPoint" />
            <Array as="points">
              <mxPoint x="200" y="490" />
              <mxPoint x="200" y="440" />
              <mxPoint x="-110" y="440" />
            </Array>
          </mxGeometry>
        </mxCell>
        <mxCell id="2ty1knG1eM7zC8Bu9mtG-23" value="&lt;font color=&quot;#5517ff&quot;&gt;Type&lt;/font&gt;" style="text;html=1;align=center;verticalAlign=middle;whiteSpace=wrap;rounded=0;" vertex="1" parent="1">
          <mxGeometry x="153" y="416" width="60" height="30" as="geometry" />
        </mxCell>
        <mxCell id="2ty1knG1eM7zC8Bu9mtG-24" value="" style="endArrow=none;dashed=1;html=1;rounded=0;" edge="1" parent="1">
          <mxGeometry width="50" height="50" relative="1" as="geometry">
            <mxPoint x="43" y="540" as="sourcePoint" />
            <mxPoint x="153" y="540" as="targetPoint" />
          </mxGeometry>
        </mxCell>
        <mxCell id="2ty1knG1eM7zC8Bu9mtG-25" value="" style="endArrow=classic;html=1;rounded=0;entryX=0.269;entryY=1.1;entryDx=0;entryDy=0;entryPerimeter=0;" edge="1" parent="1" target="cCdaDrkrxBN9BAhdTQBS-6">
          <mxGeometry width="50" height="50" relative="1" as="geometry">
            <mxPoint x="90" y="550" as="sourcePoint" />
            <mxPoint x="-60" y="420" as="targetPoint" />
            <Array as="points">
              <mxPoint x="-400" y="550" />
              <mxPoint x="-400" y="500" />
            </Array>
          </mxGeometry>
        </mxCell>
        <mxCell id="2ty1knG1eM7zC8Bu9mtG-26" value="&lt;font color=&quot;#5517ff&quot;&gt;Assigned&lt;/font&gt;" style="text;html=1;align=center;verticalAlign=middle;whiteSpace=wrap;rounded=0;" vertex="1" parent="1">
          <mxGeometry x="-250" y="470" width="60" height="30" as="geometry" />
        </mxCell>
        <mxCell id="2ty1knG1eM7zC8Bu9mtG-29" value="" style="endArrow=none;dashed=1;html=1;rounded=0;" edge="1" parent="1">
          <mxGeometry width="50" height="50" relative="1" as="geometry">
            <mxPoint x="164" y="541" as="sourcePoint" />
            <mxPoint x="274" y="541" as="targetPoint" />
          </mxGeometry>
        </mxCell>
        <mxCell id="2ty1knG1eM7zC8Bu9mtG-30" value="" style="endArrow=classic;html=1;rounded=0;entryX=0.218;entryY=0.95;entryDx=0;entryDy=0;entryPerimeter=0;" edge="1" parent="1" target="cCdaDrkrxBN9BAhdTQBS-2">
          <mxGeometry width="50" height="50" relative="1" as="geometry">
            <mxPoint x="190" y="560" as="sourcePoint" />
            <mxPoint x="110" y="740" as="targetPoint" />
            <Array as="points">
              <mxPoint x="70" y="560" />
              <mxPoint x="-260" y="560" />
              <mxPoint x="-420" y="560" />
              <mxPoint x="-420" y="600" />
              <mxPoint x="-320" y="610" />
            </Array>
          </mxGeometry>
        </mxCell>
        <mxCell id="2ty1knG1eM7zC8Bu9mtG-31" value="&lt;font color=&quot;#5517ff&quot;&gt;Instance&lt;/font&gt;" style="text;html=1;align=center;verticalAlign=middle;whiteSpace=wrap;rounded=0;" vertex="1" parent="1">
          <mxGeometry x="190" y="540" width="60" height="30" as="geometry" />
        </mxCell>
        <mxCell id="2ty1knG1eM7zC8Bu9mtG-32" value="" style="endArrow=none;dashed=1;html=1;rounded=0;" edge="1" parent="1">
          <mxGeometry width="50" height="50" relative="1" as="geometry">
            <mxPoint x="484" y="539" as="sourcePoint" />
            <mxPoint x="594" y="539" as="targetPoint" />
          </mxGeometry>
        </mxCell>
        <mxCell id="2ty1knG1eM7zC8Bu9mtG-33" value="" style="endArrow=classic;html=1;rounded=0;entryX=0.523;entryY=1.025;entryDx=0;entryDy=0;entryPerimeter=0;exitX=0.75;exitY=0;exitDx=0;exitDy=0;" edge="1" parent="1" source="2ty1knG1eM7zC8Bu9mtG-35" target="cCdaDrkrxBN9BAhdTQBS-11">
          <mxGeometry width="50" height="50" relative="1" as="geometry">
            <mxPoint x="410" y="550" as="sourcePoint" />
            <mxPoint x="520" y="340" as="targetPoint" />
            <Array as="points">
              <mxPoint x="670" y="550" />
              <mxPoint x="670" y="320" />
              <mxPoint x="40" y="310" />
            </Array>
          </mxGeometry>
        </mxCell>
        <mxCell id="2ty1knG1eM7zC8Bu9mtG-35" value="&lt;font color=&quot;#5517ff&quot;&gt;Arrives,Departs&lt;/font&gt;" style="text;html=1;align=center;verticalAlign=middle;whiteSpace=wrap;rounded=0;" vertex="1" parent="1">
          <mxGeometry x="450" y="540" width="60" height="30" as="geometry" />
        </mxCell>
        <mxCell id="2ty1knG1eM7zC8Bu9mtG-36" value="" style="endArrow=none;dashed=1;html=1;rounded=0;" edge="1" parent="1">
          <mxGeometry width="50" height="50" relative="1" as="geometry">
            <mxPoint x="-4" y="649" as="sourcePoint" />
            <mxPoint x="106" y="649" as="targetPoint" />
          </mxGeometry>
        </mxCell>
        <mxCell id="2ty1knG1eM7zC8Bu9mtG-37" value="" style="endArrow=classic;html=1;rounded=0;" edge="1" parent="1">
          <mxGeometry width="50" height="50" relative="1" as="geometry">
            <mxPoint x="70" y="660" as="sourcePoint" />
            <mxPoint x="-310" y="370" as="targetPoint" />
            <Array as="points">
              <mxPoint x="-530" y="660" />
              <mxPoint x="-530" y="380" />
            </Array>
          </mxGeometry>
        </mxCell>
        <mxCell id="2ty1knG1eM7zC8Bu9mtG-38" value="&lt;font color=&quot;#5517ff&quot;&gt;Fares&lt;/font&gt;" style="text;html=1;align=center;verticalAlign=middle;whiteSpace=wrap;rounded=0;" vertex="1" parent="1">
          <mxGeometry x="61" y="644" width="60" height="30" as="geometry" />
        </mxCell>
        <mxCell id="2ty1knG1eM7zC8Bu9mtG-39" value="" style="endArrow=none;dashed=1;html=1;rounded=0;" edge="1" parent="1">
          <mxGeometry width="50" height="50" relative="1" as="geometry">
            <mxPoint x="393" y="598" as="sourcePoint" />
            <mxPoint x="503" y="598" as="targetPoint" />
          </mxGeometry>
        </mxCell>
        <mxCell id="2ty1knG1eM7zC8Bu9mtG-40" value="&lt;font color=&quot;#5517ff&quot;&gt;Legs&lt;/font&gt;" style="text;html=1;align=center;verticalAlign=middle;whiteSpace=wrap;rounded=0;" vertex="1" parent="1">
          <mxGeometry x="500" y="584" width="60" height="30" as="geometry" />
        </mxCell>
        <mxCell id="2ty1knG1eM7zC8Bu9mtG-41" value="" style="endArrow=classic;html=1;rounded=0;entryX=0.382;entryY=1;entryDx=0;entryDy=0;entryPerimeter=0;" edge="1" parent="1" target="cCdaDrkrxBN9BAhdTQBS-3">
          <mxGeometry width="50" height="50" relative="1" as="geometry">
            <mxPoint x="470" y="610" as="sourcePoint" />
            <mxPoint x="530" y="480" as="targetPoint" />
            <Array as="points">
              <mxPoint x="760" y="610" />
              <mxPoint x="760" y="370" />
              <mxPoint x="-240" y="380" />
            </Array>
          </mxGeometry>
        </mxCell>
      </root>
    </mxGraphModel>
  </diagram>
</mxfile>
